<svg id="Layer_1" data-name="Layer 1" xmlns="http://www.w3.org/2000/svg" viewBox="0 0 454.29 146.39">
    <defs>
        <style>
            .cls-1{fill:#d7b46a;}.cls-1,.cls-2,.cls-3{fill-rule:evenodd;}.cls-2{fill:#aa772d;}.cls-3{fill:#c09449;}.cls-4{fill:#1d1d1b;}
        </style>
    </defs>
    <path class="cls-1"
          d="M110.39,441.47V401.08A12.62,12.62,0,0,1,123,388.47h40.38a12.62,12.62,0,1,1,0,25.23H135.63v15.15h27.76a12.62,12.62,0,1,1,0,25.23H123a12.61,12.61,0,0,1-12.62-12.61Zm22.72-32.81h30.28a7.58,7.58,0,1,0,0-15.15H123a7.57,7.57,0,0,0-7.57,7.57v40.39A7.57,7.57,0,0,0,123,449h40.38a7.58,7.58,0,1,0,0-15.15H133.11a2.52,2.52,0,0,1-2.53-2.52V411.18a2.52,2.52,0,0,1,2.53-2.52Z"
          transform="translate(-70.01 -348.08)"/>
    <path class="cls-2"
          d="M75.06,401.08a48,48,0,0,1,38.36-47,2.52,2.52,0,1,0-1.14-4.91A53,53,0,0,0,70,401.08v40.39a53,53,0,0,0,42.32,51.92,2.53,2.53,0,1,0,1-4.95,48,48,0,0,1-38.26-47V401.08Zm99.07-51.91a53,53,0,0,1,42.26,51.91v40.39a53,53,0,0,1-42.23,51.9,3,3,0,0,1-.67.09,2.53,2.53,0,0,1-.59-5l.18,0a48,48,0,0,0,38.27-47V401.08a48,48,0,0,0-38.29-47,2.53,2.53,0,1,1,1.07-4.94Z"
          transform="translate(-70.01 -348.08)"/>
    <path class="cls-3"
          d="M123,474.27A32.81,32.81,0,0,1,90.2,441.46V401.08A32.81,32.81,0,0,1,123,368.27h7.57V350.6a2.53,2.53,0,0,1,5,0v20.19a2.52,2.52,0,0,1-2.52,2.53H123a27.76,27.76,0,0,0-27.76,27.76v40.38A27.76,27.76,0,0,0,123,469.22h10.1a2.52,2.52,0,0,1,2.52,2.53V492a2.53,2.53,0,0,1-5,0V474.28Zm30.29-5h10.24a27.76,27.76,0,0,0,20.59-46.22,2.52,2.52,0,0,1,0-3.53,27.76,27.76,0,0,0-20.72-46.24H153.3a2.53,2.53,0,0,1-2.53-2.53V350.6a2.53,2.53,0,0,1,5,0v17.67h7.57a32.82,32.82,0,0,1,25.83,53.05,32.81,32.81,0,0,1-25.83,53c-2.52,0-5,.07-7.57.07v17.51a2.53,2.53,0,0,1-5,0V471.83a2.53,2.53,0,0,1,2.53-2.53Z"
          transform="translate(-70.01 -348.08)"/>
    <path class="cls-4"
          d="M281.81,432.92l10.56-39.42h14.74l10.71,39.42H306.17l-8.76-32.25-8.64,32.25Zm206.48,0,10.56-39.42h14.74l10.71,39.42H512.66l-8.76-32.25-8.64,32.25Zm-22.69-39.4h11v39.41h-11V419.37l-11.17-16.09v29.65h-11V393.52h11l11.17,16.09V393.52Zm-44.29,0h11v39.41h-11V393.52Zm-22,20c-.09-10.79-7.79-14.45-11-14.43s-10.91,3.64-11,14.43c0,5.39,3.42,13.08,11,13.88,7.59-.8,11.05-8.49,11-13.88Zm-6.91-20c10,0,18,9.45,17.91,19.67-.07,10.43-7.72,19.74-18.36,19.74h-7.29c-10.64,0-18.29-9.31-18.36-19.74-.08-10.22,7.87-19.67,17.9-19.67Zm-57.14,20c.08-10.79,7.78-14.45,11-14.42h11.24V393.5H342.12c-10,0-18,9.44-17.91,19.67.08,10.42,7.72,19.73,18.36,19.73h14.89v-5.54H346.22c-7.58-.8-11.05-8.49-11-13.88Zm-66.78-.27c4.53-3.22,5.38-9.58,2.93-14a11.06,11.06,0,0,0-9.87-5.74H236.58v39.41H261.5a11.07,11.07,0,0,0,9.87-5.74c2.45-4.39,1.6-10.74-2.93-14Zm-20.81-14.15,9.27,0a3.74,3.74,0,0,1,3.78,3,3.93,3.93,0,0,1-1.43,3.89l-6.06,4.23v6.07l6.06,4.23a3.93,3.93,0,0,1,1.43,3.89,3.76,3.76,0,0,1-3.78,3l-9.27,0V399.07Z"
          transform="translate(-70.01 -348.08)"/>
    <path class="cls-4"
          d="M246.58,453.45a8.65,8.65,0,0,1-3.52.63c-3.76,0-6.59-2.38-6.59-6.75a6.64,6.64,0,0,1,7-7,7.06,7.06,0,0,1,3.17.6l-.42,1.4a6.35,6.35,0,0,0-2.69-.55c-3.12,0-5.2,2-5.2,5.5,0,3.27,1.88,5.36,5.12,5.36a6.82,6.82,0,0,0,2.81-.55Z"
          transform="translate(-70.01 -348.08)"/>
    <path class="cls-4"
          d="M258.29,440.72a17.86,17.86,0,0,1,3.31-.28,5.47,5.47,0,0,1,3.86,1.09,3.35,3.35,0,0,1,1.05,2.53,3.51,3.51,0,0,1-2.52,3.41v.06a3.31,3.31,0,0,1,2,2.69,22.21,22.21,0,0,0,1,3.66H265.2a17.16,17.16,0,0,1-.89-3.19c-.39-1.84-1.11-2.53-2.67-2.59H260v5.78h-1.73ZM260,446.8h1.76c1.84,0,3-1,3-2.54,0-1.72-1.25-2.47-3.07-2.49a7,7,0,0,0-1.7.16Z"
          transform="translate(-70.01 -348.08)"/>
    <path class="cls-4"
          d="M280,453.88v-5.66l-4.22-7.68h2l1.88,3.68c.52,1,.91,1.82,1.33,2.75h0c.37-.87.83-1.74,1.34-2.75l1.92-3.68h2l-4.47,7.66v5.68Z"
          transform="translate(-70.01 -348.08)"/>
    <path class="cls-4"
          d="M295.84,440.7a19.76,19.76,0,0,1,3.31-.26,5.49,5.49,0,0,1,3.74,1.11,3.59,3.59,0,0,1,1.17,2.79,3.93,3.93,0,0,1-1,2.85,5.54,5.54,0,0,1-4.08,1.47,5.81,5.81,0,0,1-1.38-.12v5.34h-1.73Zm1.73,6.43a5.66,5.66,0,0,0,1.42.14c2.08,0,3.34-1,3.34-2.85s-1.24-2.61-3.14-2.61a7.09,7.09,0,0,0-1.62.14Z"
          transform="translate(-70.01 -348.08)"/>
    <path class="cls-4" d="M317,442H313v-1.47h9.87V442h-4.08v11.87H317Z" transform="translate(-70.01 -348.08)"/>
    <path class="cls-4"
          d="M343.8,447.07c0,4.59-2.79,7-6.19,7s-6-2.73-6-6.77c0-4.23,2.63-7,6.19-7S343.8,443.11,343.8,447.07Zm-10.35.22c0,2.85,1.54,5.4,4.26,5.4s4.27-2.51,4.27-5.54c0-2.65-1.39-5.42-4.25-5.42S333.45,444.36,333.45,447.29Z"
          transform="translate(-70.01 -348.08)"/>
    <path class="cls-4"
          d="M377,453.45a8.62,8.62,0,0,1-3.52.63c-3.76,0-6.59-2.38-6.59-6.75a6.64,6.64,0,0,1,7-7,7.13,7.13,0,0,1,3.17.6l-.42,1.4a6.35,6.35,0,0,0-2.69-.55c-3.13,0-5.21,2-5.21,5.5,0,3.27,1.88,5.36,5.13,5.36a6.82,6.82,0,0,0,2.81-.55Z"
          transform="translate(-70.01 -348.08)"/>
    <path class="cls-4"
          d="M390.45,440.54v7.9c0,3,1.33,4.25,3.11,4.25,2,0,3.24-1.3,3.24-4.25v-7.9h1.75v7.78c0,4.1-2.16,5.78-5.05,5.78-2.73,0-4.79-1.56-4.79-5.7v-7.86Z"
          transform="translate(-70.01 -348.08)"/>
    <path class="cls-4"
          d="M409.63,440.72a17.78,17.78,0,0,1,3.31-.28,5.44,5.44,0,0,1,3.85,1.09,3.31,3.31,0,0,1,1,2.53,3.5,3.5,0,0,1-2.51,3.41v.06a3.33,3.33,0,0,1,2,2.69,21.21,21.21,0,0,0,1,3.66h-1.78a16.36,16.36,0,0,1-.89-3.19c-.4-1.84-1.11-2.53-2.67-2.59h-1.63v5.78h-1.72Zm1.72,6.08h1.76c1.85,0,3-1,3-2.54,0-1.72-1.24-2.47-3.07-2.49a7,7,0,0,0-1.7.16Z"
          transform="translate(-70.01 -348.08)"/>
    <path class="cls-4"
          d="M428.38,440.72a17.67,17.67,0,0,1,3.3-.28,5.47,5.47,0,0,1,3.86,1.09,3.35,3.35,0,0,1,1,2.53,3.51,3.51,0,0,1-2.51,3.41v.06a3.33,3.33,0,0,1,2,2.69,21.52,21.52,0,0,0,1,3.66h-1.78a18,18,0,0,1-.89-3.19c-.39-1.84-1.11-2.53-2.67-2.59H430.1v5.78h-1.72Zm1.72,6.08h1.76c1.84,0,3-1,3-2.54,0-1.72-1.25-2.47-3.07-2.49a7,7,0,0,0-1.7.16Z"
          transform="translate(-70.01 -348.08)"/>
    <path class="cls-4" d="M454,447.63h-5.19v4.81h5.78v1.44h-7.5V440.54h7.2V442h-5.48v4.21H454Z"
          transform="translate(-70.01 -348.08)"/>
    <path class="cls-4"
          d="M465,453.88V440.54h1.88l4.28,6.75a36.52,36.52,0,0,1,2.39,4.34l0,0c-.16-1.78-.19-3.4-.19-5.48v-5.58H475v13.34h-1.74L469,447.11a41.81,41.81,0,0,1-2.49-4.45l-.06,0c.1,1.68.14,3.29.14,5.5v5.7Z"
          transform="translate(-70.01 -348.08)"/>
    <path class="cls-4"
          d="M495.4,453.45a8.71,8.71,0,0,1-3.53.63c-3.76,0-6.59-2.38-6.59-6.75a6.64,6.64,0,0,1,7-7,7.13,7.13,0,0,1,3.17.6l-.42,1.4a6.35,6.35,0,0,0-2.69-.55c-3.13,0-5.21,2-5.21,5.5,0,3.27,1.88,5.36,5.13,5.36a6.82,6.82,0,0,0,2.81-.55Z"
          transform="translate(-70.01 -348.08)"/>
    <path class="cls-4"
          d="M516.56,453.88v-5.66l-4.22-7.68h2l1.88,3.68c.52,1,.91,1.82,1.33,2.75h0c.38-.87.83-1.74,1.35-2.75l1.92-3.68h1.95l-4.47,7.66v5.68Z"
          transform="translate(-70.01 -348.08)"/>
</svg>