<svg xmlns="http://www.w3.org/2000/svg" width="1025" height="1025" viewBox="0 0 1025 1025">
  <g id="Layer_2" data-name="Layer 2" transform="translate(3.096 2.748)">
    <g id="Layer_1" data-name="Layer 1" transform="translate(-2.596 -2.249)">
      <rect id="Rectangle_1" data-name="Rectangle 1" width="1024" height="1024" rx="230" transform="translate(0 0)" fill="#db143d" stroke="rgba(219,20,61,0.42)" stroke-width="1"/>
      <path id="Path_1" data-name="Path 1" d="M607.758,355.7c-12.427-53.832-33.444-95.09-69.024-143.467-13.632-19.945-31.271-39.884-52.933-62.129-17.417-18.18-37.976-37.858-62.453-59.764-3.027-2.758-6.819-6.217-9.387-8.642-4.384-4.16-6.111-.7-6.111-.7l-5.1,8.671-.364.594c-28.04,48.323-32.883,51.4-23.254,58.3C238,209.164,223.562,387.879,228.374,410.118c-28.359,10.1-93.591,10.846-115.876,10.8a7.4,7.4,0,0,0-7.648,7.132V528.427a6.918,6.918,0,0,0,2.407,5.164,7.979,7.979,0,0,0,5.674,1.926c105.858-6,154.724-26.744,186.8-38.7,46.521-16.872,37.688-16.1,79.4,0,7.213,3.073,15.231,6.139,23.254,9.973a249.49,249.49,0,0,1,83.4,55.99c2.147,2.056,4.3,4.719,6.449,6.906l12.924,14.447a7.414,7.414,0,0,0,10.9,0L529,569.643c3.7-4.261,6.806-7.839,9.757-11.5,65.518-81.326,72.146-145.981,72.191-154.652C610.944,394.714,611.888,373.592,607.758,355.7ZM273.283,315.01c1.605-10.739,12.031-24.545,27.269-39.878,23.26-23.772,60.949-54.463,80.2-28.384,11.228,9.2,17.646,22.239,21.667,34.512,7.22,26.851,3.187,52.157,4.009,51.4a13.963,13.963,0,0,0-4.009,3.061C357.486,365.634,267.668,369.467,273.283,315.01ZM544.349,427.757a47.5,47.5,0,0,0-5.615,3.067c-11.229,4.606-31.271,2.306-52.933-3.067-21.667-6.133-45.706-15.339-66.557-24.539-9.623-3.84-15.244-6.906-16.843-9.973-1.606-2.3-1.606-4.606,0-7.673,4.811-10.733,26.466-29.121,42.506-72.1,1.606-4.6,7.214-22.239,7.214-38.345,0-16.878,1.606-38.356,16.047-11.511,1.6,4.606,8.814,14.572,17.633,28.384,16.85,26.073,40.1,62.89,52.933,91.274C549.16,406.279,553.972,423.924,544.349,427.757Z" transform="translate(154.057 178.914)" fill="#f5f6fa"/>
    </g>
  </g>
</svg>
